<svg width="61" height="40" viewBox="0 0 61 40" fill="none" xmlns="http://www.w3.org/2000/svg">
<g clip-path="url(#clip0_38_542)">
<path d="M56 39.9967H4C2.93913 39.9967 1.92172 39.5752 1.17157 38.8251C0.421427 38.0749 0 37.0575 0 35.9967L0 19.17H2.88167L3.53167 17.5967H4.98667L5.635 19.1633H11.305V17.9717L11.8117 19.1717H14.755L15.2617 17.9517V19.1683H29.35V16.595H29.6167C29.8067 16.6017 29.8617 16.6183 29.8617 16.935V19.1717H37.15V18.5733C37.895 18.9517 38.7733 19.1733 39.705 19.1733L39.8633 19.1717H39.855H42.9217L43.5783 17.605H45.0333L45.675 19.1717H51.585V17.6817L52.4783 19.1717H57.205V9.33167H52.5267V10.4933L51.8717 9.33167H47.0617V10.4933L46.46 9.33167H39.965C38.9809 9.28194 38.0005 9.48445 37.1167 9.92L37.1517 9.905V9.33167H32.6717V9.905C32.1294 9.47759 31.4445 9.27313 30.7567 9.33333H30.7667H14.395L13.2967 11.875L12.1683 9.33333H7.01167V10.495L6.44333 9.33333H2.04333L0.005 14V4C0.005 2.93913 0.426427 1.92172 1.17657 1.17157C1.92672 0.421427 2.94413 0 4.005 0H56.005C57.0659 0 58.0833 0.421427 58.8334 1.17157C59.5836 1.92172 60.005 2.93913 60.005 4V21.4667H56.8833C56.8333 21.4633 56.7733 21.4633 56.715 21.4633C55.9917 21.4633 55.32 21.68 54.76 22.0517L54.7733 22.0433V21.4667H50.1567C49.4354 21.4268 48.7218 21.6318 48.1317 22.0483L48.1417 22.0417V21.465H39.8983V22.0417C39.2235 21.6611 38.4614 21.4624 37.6867 21.465H37.6217H37.625H32.1867V22.0417C31.4762 21.5865 30.6331 21.384 29.7933 21.4667L29.8083 21.465H23.7233L22.33 22.9717L21.0267 21.465H11.9367V31.3117H20.8567L22.2917 29.7817L23.6433 31.3117H29.1417V29.0067H29.9083C30.6455 29.0355 31.3807 28.9124 32.0683 28.645L32.0317 28.6583V31.315H36.565V28.75H36.7833C37.06 28.75 37.0883 28.76 37.0883 29.04V31.3167H50.865L51.0333 31.32C51.8233 31.32 52.56 31.0833 53.1733 30.6783L53.1583 30.6867V31.3167H57.5283L57.7367 31.32C58.555 31.32 59.3333 31.1517 60.04 30.8467L60.0017 30.8617V35.9983C60.0017 37.0592 59.5802 38.0766 58.8301 38.8268C58.0799 39.5769 57.0625 39.9983 56.0017 39.9983L56 39.9967ZM35.175 29.9317H33.4783V22.8733H37.3717C38.0748 22.8082 38.7829 22.9265 39.4267 23.2167L39.4 23.2067C39.9217 23.4933 40.27 24.04 40.27 24.6667L40.2667 24.7783V24.7733L40.2683 24.8367C40.2683 25.6467 39.78 26.3433 39.08 26.6467L39.0667 26.6517C39.4017 26.7717 39.6817 26.9767 39.89 27.2417L39.8933 27.245C40.1286 27.6345 40.2272 28.0914 40.1733 28.5433L40.175 28.5333V29.93H38.4817V29.0467C38.5618 28.5657 38.4653 28.072 38.21 27.6567L38.215 27.665C38.0391 27.5315 37.8379 27.435 37.6236 27.3814C37.4093 27.3278 37.1864 27.3183 36.9683 27.3533L36.9783 27.3517H35.175V29.93V29.9317ZM35.175 24.3317V25.9167H37.225C37.5145 25.9434 37.8058 25.8916 38.0683 25.7667L38.0583 25.7717C38.1656 25.7024 38.2538 25.6074 38.3149 25.4953C38.3761 25.3833 38.4082 25.2577 38.4083 25.13L38.4067 25.0917C38.4149 24.9643 38.3869 24.8388 38.3258 24.7267C38.2648 24.6146 38.1732 24.5221 38.0617 24.46L38.0583 24.4583C37.8054 24.3452 37.5275 24.2993 37.2517 24.325H37.2583L35.175 24.3317ZM20.1333 29.93H13.455V22.8733H20.2383L22.3133 25.1867L24.4583 22.8733H29.8467C31.76 22.8733 32.69 23.635 32.69 25.1983C32.69 26.79 31.7283 27.5633 29.7567 27.5633H27.6483V29.9283H24.37L22.2933 27.5967L20.135 29.93H20.1333ZM25.9683 23.63L23.3783 26.4133L25.9683 29.2867V23.63ZM15.1367 27.055V28.4583H19.2833L21.2 26.3883L19.3567 24.3317H15.135V25.615H18.8383V27.0533L15.1367 27.055ZM27.6483 24.3333V26.13H29.8267C30.4933 26.13 30.8767 25.79 30.8767 25.1967C30.8767 24.63 30.52 24.3317 29.845 24.3317L27.6483 24.3333ZM57.7117 29.9333H54.455V28.4167H57.6983C57.941 28.4501 58.1871 28.3867 58.3833 28.24L58.3817 28.2417C58.4443 28.1836 58.4942 28.1132 58.5284 28.0349C58.5625 27.9566 58.5801 27.8721 58.58 27.7867V27.76C58.5801 27.6756 58.5619 27.5923 58.5264 27.5157C58.491 27.4391 58.4394 27.3712 58.375 27.3167C58.2025 27.192 57.9898 27.1362 57.7783 27.16H57.7817L57.47 27.15C55.9467 27.11 54.2217 27.0633 54.2217 24.975C54.2217 23.9583 54.8583 22.8733 56.64 22.8733H60.0017V24.3767H56.9267C56.6891 24.3501 56.4492 24.3978 56.24 24.5133L56.2467 24.51C56.1644 24.5642 56.0982 24.6395 56.0551 24.728C56.012 24.8166 55.9935 24.9152 56.0017 25.0133V25.0117V25.03C56.0017 25.1423 56.0371 25.2517 56.1029 25.3427C56.1688 25.4337 56.2617 25.5016 56.3683 25.5367L56.3717 25.5383C56.583 25.6035 56.8042 25.6306 57.025 25.6183H57.02L57.935 25.6417C58.6247 25.5728 59.3138 25.7782 59.8533 26.2133L59.8483 26.21C59.8983 26.25 59.9417 26.2933 59.98 26.3417L59.9817 26.3433L60.0017 29.03C59.7214 29.3575 59.3648 29.6111 58.9635 29.7683C58.5621 29.9256 58.1282 29.9816 57.7 29.9317L57.7117 29.9333ZM51.13 29.9333H47.8433V28.4167H51.1133C51.358 28.4487 51.6057 28.3854 51.805 28.24L51.8017 28.2417C51.8639 28.1834 51.9135 28.1129 51.9473 28.0346C51.9811 27.9563 51.9985 27.8719 51.9983 27.7867V27.77C51.9982 27.6842 51.9799 27.5994 51.9446 27.5213C51.9092 27.4431 51.8577 27.3734 51.7933 27.3167C51.6178 27.1919 51.4024 27.1361 51.1883 27.16H51.1917L50.8817 27.15C49.3633 27.11 47.64 27.0633 47.64 24.975C47.64 23.9583 48.2733 22.8733 50.0517 22.8733H53.4317V24.3767H50.3383C50.1024 24.3504 49.8642 24.3981 49.6567 24.5133L49.6633 24.51C49.5758 24.5702 49.5061 24.653 49.4617 24.7496C49.4173 24.8461 49.3999 24.9529 49.4111 25.0586C49.4224 25.1643 49.462 25.2649 49.5258 25.35C49.5895 25.435 49.675 25.5012 49.7733 25.5417L49.7767 25.5433C49.9907 25.609 50.2148 25.6361 50.4383 25.6233H50.4333L51.3417 25.6467C52.035 25.5799 52.7272 25.7855 53.2717 26.22L53.2667 26.215C53.4498 26.4169 53.5891 26.6546 53.6757 26.9131C53.7624 27.1715 53.7945 27.4452 53.77 27.7167V27.7083C53.775 29.18 52.8833 29.93 51.125 29.93L51.13 29.9333ZM46.8333 29.9333H41.2V22.8717H46.8283V24.33H42.8833V25.6133H46.7367V27.0517H42.8833V28.455L46.8333 28.4617V29.9283V29.9333ZM50.1167 17.79H46.6817L46.025 16.2167H42.5217L41.885 17.79H39.9117C39.0255 17.8367 38.1528 17.5575 37.4583 17.005L37.4667 17.01C37.1367 16.6459 36.8863 16.217 36.7313 15.7506C36.5764 15.2843 36.5203 14.7909 36.5667 14.3017L36.565 14.315C36.5221 13.8168 36.5809 13.3151 36.7379 12.8403C36.8949 12.3656 37.1468 11.9277 37.4783 11.5533L37.475 11.5567C37.825 11.2506 38.2342 11.0199 38.6772 10.8788C39.1202 10.7378 39.5875 10.6894 40.05 10.7367L40.0367 10.735H41.67V12.24H40.07C39.8359 12.2098 39.598 12.2317 39.3733 12.304C39.1486 12.3763 38.9426 12.4973 38.77 12.6583L38.7717 12.6567C38.4153 13.113 38.2423 13.686 38.2867 14.2633V14.255C38.2336 14.8481 38.4002 15.4401 38.755 15.9183L38.75 15.9117C39.0813 16.1824 39.5054 16.3129 39.9317 16.275H39.925H40.6817L43.0667 10.725H45.6L48.455 17.3917V10.725H51.0233L53.9867 15.6383V10.725H55.72V17.7783H53.3133L50.1133 12.4817V17.7783L50.1167 17.79ZM44.285 11.9267L43.1233 14.74H45.4517L44.285 11.9267ZM27.9533 17.7867H26.2667V10.73H30.1467C30.8549 10.6565 31.5699 10.7769 32.215 11.0783L32.19 11.0683C32.4494 11.2118 32.6656 11.4221 32.8163 11.6773C32.9669 11.9326 33.0465 12.2236 33.0467 12.52L33.0433 12.6367V12.6317V12.6833C33.0435 13.0683 32.9325 13.445 32.7238 13.7685C32.5151 14.0919 32.2175 14.3482 31.8667 14.5067L31.8533 14.5117C32.1883 14.6383 32.47 14.8417 32.685 15.1017L32.6883 15.105C32.9261 15.496 33.0243 15.956 32.9667 16.41L32.9683 16.4V17.785H31.2667L31.26 16.895V16.7617C31.3206 16.3265 31.2243 15.884 30.9883 15.5133L30.9933 15.5217C30.8168 15.392 30.6163 15.2986 30.4035 15.2468C30.1907 15.195 29.9697 15.1859 29.7533 15.22L29.7633 15.2183H27.955V17.785L27.9533 17.7867ZM27.9533 12.1983V13.765H30C30.2891 13.7964 30.5812 13.7443 30.8417 13.615L30.8333 13.6183C30.9401 13.5534 31.0284 13.4622 31.0897 13.3533C31.151 13.2444 31.1832 13.1216 31.1833 12.9967L31.1817 12.95C31.1901 12.8234 31.1614 12.6987 31.0989 12.5882C31.0364 12.4777 30.9429 12.388 30.83 12.33L30.8267 12.3283C30.573 12.2195 30.2968 12.1738 30.0217 12.195H30.0267L27.9533 12.1983ZM10.0933 17.7867H6.66667L6.01833 16.2133H2.505L1.85167 17.7867H0.0183333L3.04 10.73H5.545L8.41333 17.4083V10.73H11.165L13.3717 15.515L15.4 10.73H18.2083V17.7833H16.475L16.4717 12.2633L14.0267 17.785H12.5467L10.095 12.255V17.785L10.0933 17.7867ZM4.25333 11.9267L3.105 14.74H5.40833L4.25333 11.9267ZM35.7333 17.785H34.0133V10.73H35.735V17.7833L35.7333 17.785ZM25.09 17.785H19.4667V10.73H25.1V12.1967H21.1533V13.4683H25.005V14.9167H21.15V16.3267H25.0967V17.7833L25.09 17.785Z" fill="#2C4DA1"/>
</g>
<defs>
<clipPath id="clip0_38_542">
<rect width="60.04" height="39.9983" fill="white"/>
</clipPath>
</defs>
</svg>
