<svg width="72" height="41" viewBox="0 0 72 41" fill="none" xmlns="http://www.w3.org/2000/svg">
<g clip-path="url(#clip0_38_552)">
<path fill-rule="evenodd" clip-rule="evenodd" d="M37.8439 9.67003C37.829 9.68514 37.8165 12.288 37.8165 15.454V21.2105L48.8313 21.1996L59.8462 21.1888L60.3063 21.0631C63.0192 20.3223 64.6896 18.1733 64.6878 15.4266C64.6871 14.3941 64.6478 14.185 64.2595 13.1458C63.6713 11.5712 61.9888 10.198 60.1063 9.75589L59.726 9.66665L48.7987 9.65456C42.7888 9.64798 37.859 9.65509 37.8439 9.67003ZM15.6469 9.80371C11.4924 10.3383 8.09652 13.203 6.87057 17.2074C6.47199 18.5093 6.42346 18.9911 6.4231 21.6494C6.42274 24.2803 6.44639 24.5561 6.78594 25.8713C7.68426 29.3506 10.6284 32.3034 14.1461 33.2535C14.7104 33.406 14.7589 33.4167 15.2571 33.4986C16.5854 33.7173 27.1618 33.7306 28.4524 33.5152C33.6894 32.641 37.2546 28.4666 37.3641 23.0802L37.3867 21.9698L29.6281 21.9596L21.8695 21.9497V21.5895V21.2293L29.6281 21.2192L37.3867 21.209L37.3657 20.2186C37.3324 18.6583 37.0937 17.4474 36.5787 16.227C35.088 12.6949 31.9374 10.3043 28.1123 9.803C27.2435 9.68923 16.5323 9.68976 15.6469 9.80371ZM37.8354 22.0188C37.8247 22.0467 37.8206 24.6538 37.8263 27.8121L37.8366 33.5546H48.5612C60.0366 33.5546 59.6729 33.5607 60.4265 33.3573C63.846 32.4339 65.6526 28.6883 64.2396 25.4512C63.6521 24.105 62.4062 22.8807 61.1467 22.4117C60.7333 22.2578 60.4073 22.1573 60.0663 22.0789L59.686 21.9914L48.7703 21.9797C39.9852 21.9705 37.8508 21.9781 37.8354 22.0188Z" fill="#FBFBFB"/>
<path fill-rule="evenodd" clip-rule="evenodd" d="M0 20.0087V40.0174H35.5556H71.1111V20.0087V0H35.5556H0V20.0087ZM59.726 9.63289C59.8363 9.65618 60.0343 9.69618 60.1664 9.7216C61.7858 10.0348 63.3586 11.2532 64.1424 12.8023C65.3838 15.2549 64.6462 18.566 62.5323 20.0292C62.469 20.0729 62.3684 20.1484 62.3086 20.197C61.8174 20.5959 60.9054 20.9835 60.0062 21.1753L59.566 21.2693H48.6812H37.7966L37.7863 15.4164L37.7762 9.56355L48.6512 9.57707C56.0908 9.58631 59.5893 9.60391 59.726 9.63289ZM27.6128 9.70471C28.0196 9.73813 28.4965 9.7936 28.6725 9.82809C29.0473 9.90151 29.7977 10.082 29.9131 10.1264C29.9572 10.1433 30.1191 10.1968 30.2732 10.2452C30.4274 10.2937 30.6075 10.3572 30.6734 10.3865C30.7394 10.4156 30.9106 10.4875 31.0535 10.546C32.6007 11.1783 34.4718 12.6761 35.3755 14.0053C35.4085 14.0539 35.4775 14.1504 35.5291 14.2199C35.6452 14.3767 35.8709 14.7259 35.9084 14.8064C35.9239 14.8395 35.9746 14.9296 36.0212 15.0066C36.1723 15.256 36.4197 15.7408 36.5216 15.987C36.5764 16.1191 36.6453 16.2811 36.6752 16.3472C36.7598 16.5348 37.0028 17.2761 37.0884 17.6076C37.3353 18.565 37.3964 19.1008 37.3964 20.3088V21.2693L29.643 21.2795L21.8896 21.2896V21.6096V21.9296H29.6558H37.422L37.405 23.04C37.3509 26.5639 35.9161 29.5001 33.2745 31.4917C33.0985 31.6245 32.9364 31.7468 32.9145 31.7636C32.7689 31.8741 32.2569 32.1954 32.034 32.3161C31.946 32.3637 31.7724 32.458 31.6485 32.5255C30.5463 33.1255 29.1506 33.5191 27.6322 33.6578C26.6731 33.7456 16.0196 33.6809 15.4468 33.584C14.8677 33.486 14.3893 33.3877 14.2462 33.3372C14.1913 33.3179 13.9842 33.2537 13.786 33.1947C13.5879 33.1355 13.3691 33.0619 13.2997 33.0308C13.2304 32.9998 13.1584 32.9739 13.1397 32.9732C13.1211 32.9723 13.0338 32.9369 12.9456 32.8944C12.8576 32.8519 12.7712 32.8165 12.7536 32.8156C12.688 32.813 11.9044 32.4082 11.5118 32.1744C10.8469 31.7781 10.1081 31.1995 9.52071 30.6146C8.80978 29.9068 8.48765 29.4988 7.86133 28.5125C7.68249 28.2308 7.46791 27.8117 7.23627 27.2919C7.07129 26.922 7.10418 27.0085 6.88587 26.3716C6.79858 26.117 6.63609 25.485 6.54613 25.051C6.48729 24.7673 6.46133 24.5621 6.35911 23.5778C6.33244 23.3204 6.32284 22.4992 6.33369 21.3968C6.35378 19.342 6.40462 18.835 6.7216 17.5276C7.27911 15.2283 9.00711 12.8254 11.0848 11.4608C12.0395 10.834 12.682 10.5241 13.806 10.1483C14.3733 9.95875 15.3321 9.77493 16.0871 9.71093C17.1013 9.62507 26.578 9.62009 27.6128 9.70471ZM59.8754 22.006C64.6222 22.8052 66.4352 28.6284 62.9748 31.9614C62.4252 32.4907 61.8992 32.8368 61.1268 33.1772C60.091 33.6336 60.5044 33.6199 48.2011 33.6062L37.7966 33.5947L37.7863 27.7621L37.7762 21.9296H48.5984C59.0706 21.9296 59.4354 21.9321 59.8754 22.006Z" fill="#146C9C"/>
<path fill-rule="evenodd" clip-rule="evenodd" d="M37.8165 9.63411C37.8165 9.66131 45.0679 9.66114 55.4442 9.63394C57.5791 9.62842 54.4864 9.61936 48.5712 9.61402C42.6561 9.60851 37.8165 9.61776 37.8165 9.63411ZM59.3959 9.6718C59.4344 9.68194 59.4976 9.68194 59.5359 9.6718C59.5745 9.66167 59.5431 9.65349 59.4659 9.65349C59.3889 9.65349 59.3575 9.66167 59.3959 9.6718ZM19.2783 9.71429C20.7144 9.71998 23.0645 9.71998 24.5007 9.71429C25.9368 9.70842 24.7617 9.70362 21.8895 9.70362C19.0172 9.70362 17.8423 9.70842 19.2783 9.71429ZM15.6568 9.7918C15.6952 9.80194 15.7583 9.80194 15.7969 9.7918C15.8353 9.78185 15.8039 9.77349 15.7269 9.77349C15.6497 9.77349 15.6183 9.78185 15.6568 9.7918ZM28.0222 9.7918C28.0607 9.80194 28.1237 9.80194 28.1623 9.7918C28.2008 9.78185 28.1692 9.77349 28.0922 9.77349C28.0152 9.77349 27.9838 9.78185 28.0222 9.7918ZM62.7473 11.0558C62.7473 11.0618 62.8869 11.2014 63.0575 11.366L63.3676 11.665L63.0686 11.355C62.7907 11.0668 62.7473 11.0265 62.7473 11.0558ZM34.275 12.8057C34.4721 13.0037 34.6424 13.1657 34.6535 13.1657C34.6645 13.1657 34.5121 13.0037 34.315 12.8057C34.1178 12.6074 33.9475 12.4455 33.9365 12.4455C33.9255 12.4455 34.0778 12.6074 34.275 12.8057ZM9.42164 12.8556L9.30395 12.9856L9.43408 12.8681C9.55533 12.7586 9.58253 12.7255 9.55159 12.7255C9.54466 12.7255 9.48617 12.7842 9.42164 12.8556ZM64.7235 15.4266C64.7237 15.6908 64.7301 15.7938 64.7379 15.6553C64.7457 15.5168 64.7457 15.3008 64.7377 15.1751C64.7299 15.0494 64.7235 15.1626 64.7235 15.4266ZM63.2451 19.2985L63.1276 19.4284L63.2575 19.3109C63.3292 19.2464 63.3877 19.1877 63.3877 19.181C63.3877 19.15 63.3546 19.1772 63.2451 19.2985ZM37.3455 19.4485C37.3455 19.5255 37.3537 19.557 37.3639 19.5186C37.374 19.48 37.374 19.417 37.3639 19.3785C37.3537 19.3399 37.3455 19.3715 37.3455 19.4485ZM6.41293 19.6686C6.41328 19.7566 6.42146 19.7879 6.43106 19.7381C6.44066 19.6883 6.4403 19.6163 6.43017 19.5781C6.42021 19.5399 6.41239 19.5806 6.41293 19.6686ZM62.7852 19.7586L62.6474 19.9086L62.7975 19.7708C62.8799 19.6949 62.9475 19.6274 62.9475 19.6208C62.9475 19.5902 62.9135 19.619 62.7852 19.7586ZM6.3811 21.6695C6.3811 22.6158 6.38626 22.9973 6.39266 22.5171C6.39906 22.037 6.39906 21.2626 6.39266 20.7964C6.38626 20.3301 6.3811 20.723 6.3811 21.6695ZM37.3848 20.739L37.3763 21.209L29.6229 21.2192L21.8695 21.2293L21.867 21.5795L21.8645 21.9298L21.8785 21.5895L21.8926 21.2492H29.6357C35.9951 21.2492 37.3823 21.2398 37.3991 21.1966C37.4101 21.1678 37.4133 20.9472 37.4062 20.7065L37.3934 20.2688L37.3848 20.739ZM43.1889 21.2393C46.1546 21.245 51.0078 21.245 53.9736 21.2393C56.9393 21.2336 54.5128 21.229 48.5813 21.229C42.6495 21.229 40.2231 21.2336 43.1889 21.2393ZM37.3921 22.5699C37.3921 22.889 37.3983 23.0195 37.406 22.8601C37.4136 22.7004 37.4136 22.4393 37.406 22.2798C37.3983 22.1202 37.3921 22.2506 37.3921 22.5699ZM63.0076 23.6503C63.1159 23.7603 63.2136 23.8505 63.2247 23.8505C63.2357 23.8505 63.1559 23.7603 63.0476 23.6503C62.9391 23.5402 62.8414 23.4503 62.8305 23.4503C62.8195 23.4503 62.8991 23.5402 63.0076 23.6503ZM6.41293 23.7104C6.41328 23.7984 6.42146 23.8297 6.43106 23.7799C6.44066 23.7301 6.4403 23.6581 6.43017 23.6199C6.42021 23.5817 6.41239 23.6224 6.41293 23.7104ZM64.7235 27.7522C64.7237 28.0162 64.7301 28.1191 64.7379 27.9806C64.7457 27.8423 64.7457 27.6261 64.7377 27.5004C64.7299 27.3747 64.7235 27.488 64.7235 27.7522ZM34.6327 30.1833L34.515 30.3132L34.6451 30.1957C34.7166 30.131 34.7752 30.0725 34.7752 30.0656C34.7752 30.0346 34.7422 30.062 34.6327 30.1833ZM9.48404 30.5534C9.73648 30.8064 9.95195 31.0135 9.96297 31.0135C9.97399 31.0135 9.77648 30.8064 9.52404 30.5534C9.27177 30.3002 9.0563 30.0931 9.04528 30.0931C9.03426 30.0931 9.23177 30.3002 9.48404 30.5534ZM33.8526 30.9635L33.7146 31.1136L33.8648 30.9756C34.0044 30.8473 34.0332 30.8135 34.0026 30.8135C33.996 30.8135 33.9285 30.881 33.8526 30.9635ZM14.5063 33.3746C14.5503 33.3936 14.6133 33.409 14.6463 33.409C14.6842 33.409 14.6767 33.3962 14.6263 33.3746C14.5823 33.3557 14.5192 33.3402 14.4863 33.3402C14.4485 33.3402 14.4558 33.3529 14.5063 33.3746ZM59.596 33.5223C59.6346 33.5322 59.6975 33.5322 59.7361 33.5223C59.7745 33.5122 59.7431 33.504 59.6661 33.504C59.5891 33.504 59.5575 33.5122 59.596 33.5223ZM59.1559 33.5634C59.2163 33.5724 59.3153 33.5724 59.3759 33.5634C59.4364 33.5541 59.387 33.5466 59.2659 33.5466C59.1448 33.5466 59.0952 33.5541 59.1559 33.5634ZM16.3982 33.6441C16.4922 33.6524 16.6364 33.6524 16.7183 33.6437C16.8003 33.6352 16.7233 33.6282 16.5471 33.6284C16.3711 33.6286 16.3041 33.6355 16.3982 33.6441ZM27.0417 33.6441C27.1352 33.6524 27.2883 33.6524 27.382 33.6441C27.4755 33.6355 27.3989 33.6286 27.2119 33.6286C27.0248 33.6286 26.9482 33.6355 27.0417 33.6441Z" fill="#8CB4CC"/>
<path fill-rule="evenodd" clip-rule="evenodd" d="M43.1257 9.59411C46.0347 9.5998 50.8068 9.5998 53.7303 9.59411C56.6539 9.58842 54.2738 9.5838 48.4413 9.5838C42.6087 9.5838 40.2167 9.58842 43.1257 9.59411ZM37.7959 15.3267C37.7959 18.441 37.8007 19.7152 37.8066 18.1578C37.8123 16.6007 37.8123 14.0526 37.8066 12.4954C37.8007 10.9383 37.7959 12.2122 37.7959 15.3267ZM37.3883 20.0887C37.3883 20.2098 37.3959 20.2594 37.405 20.1987C37.4142 20.1383 37.4142 20.0393 37.405 19.9786C37.3959 19.9182 37.3883 19.9678 37.3883 20.0887ZM24.6708 21.9593C32.1268 21.9866 37.4069 21.9866 37.3902 21.9596C37.3799 21.9431 33.8837 21.934 29.6206 21.9394C25.3575 21.9447 23.1301 21.9536 24.6708 21.9593ZM43.1257 21.9596C46.0347 21.9653 50.8068 21.9653 53.7303 21.9596C56.6539 21.9539 54.2738 21.9493 48.4413 21.9493C42.6087 21.9493 40.2167 21.9539 43.1257 21.9596ZM37.7961 27.7721C37.7961 30.9525 37.8007 32.2537 37.8066 30.6634C37.8123 29.0732 37.8123 26.4711 37.8066 24.8809C37.8007 23.2906 37.7961 24.5918 37.7961 27.7721ZM37.3877 23.3102C37.3881 23.4202 37.3959 23.4604 37.4052 23.3996C37.4142 23.3388 37.4141 23.2489 37.4045 23.1996C37.395 23.1504 37.3876 23.2002 37.3877 23.3102ZM63.005 31.904L62.8875 32.0339L63.0176 31.9164C63.1389 31.8069 63.1661 31.7738 63.1351 31.7738C63.1282 31.7738 63.0697 31.8323 63.005 31.904Z" fill="#83B4CC"/>
<path fill-rule="evenodd" clip-rule="evenodd" d="M59.0292 9.57864C59.0384 9.58664 59.1719 9.603 59.3259 9.61509C59.4959 9.62824 59.5588 9.62433 59.4861 9.60531C59.3645 9.57313 58.9986 9.55198 59.0292 9.57864ZM19.2953 9.67429C20.7188 9.67998 23.0598 9.67998 24.4976 9.67429C25.9355 9.66842 24.7709 9.66362 21.9095 9.66362C19.0484 9.66362 17.872 9.66842 19.2953 9.67429ZM59.7161 9.6718C59.7547 9.68193 59.8176 9.68193 59.8562 9.6718C59.8948 9.66167 59.8631 9.65349 59.7862 9.65349C59.7092 9.65349 59.6777 9.66167 59.7161 9.6718ZM16.3177 9.71251C16.3675 9.72211 16.4395 9.72175 16.4777 9.71162C16.5159 9.70167 16.4752 9.69384 16.3872 9.69438C16.2992 9.69473 16.2679 9.70291 16.3177 9.71251ZM27.322 9.71251C27.3716 9.72193 27.4525 9.72193 27.5021 9.71251C27.5515 9.70291 27.5111 9.69509 27.4119 9.69509C27.3129 9.69509 27.2724 9.70291 27.322 9.71251ZM60.4064 9.80424C60.4505 9.82327 60.5135 9.83873 60.5465 9.83873C60.5844 9.83873 60.5769 9.82593 60.5264 9.80424C60.4825 9.7854 60.4194 9.76993 60.3865 9.76993C60.3487 9.76993 60.3559 9.78255 60.4064 9.80424ZM29.6731 10.0844C29.717 10.1033 29.7801 10.1187 29.813 10.1187C29.8509 10.1187 29.8436 10.1061 29.7931 10.0844C29.749 10.0654 29.6861 10.0499 29.653 10.0499C29.6151 10.0499 29.6226 10.0627 29.6731 10.0844ZM31.2537 10.6647C31.3087 10.6962 31.3718 10.7218 31.3938 10.7218C31.4159 10.7218 31.3888 10.6962 31.3337 10.6647C31.2788 10.6332 31.2157 10.6074 31.1936 10.6074C31.1716 10.6074 31.1986 10.6332 31.2537 10.6647ZM63.0276 11.3049C63.1695 11.448 63.2944 11.565 63.3055 11.565C63.3165 11.565 63.2095 11.448 63.0676 11.3049C62.9259 11.1619 62.8007 11.0448 62.7899 11.0448C62.7789 11.0448 62.8859 11.1619 63.0276 11.3049ZM34.295 12.7856C34.4811 12.9726 34.6423 13.1257 34.6534 13.1257C34.6644 13.1257 34.5211 12.9726 34.335 12.7856C34.149 12.5986 33.9876 12.4455 33.9767 12.4455C33.9657 12.4455 34.109 12.5986 34.295 12.7856ZM9.42172 12.8156L9.30403 12.9456L9.43416 12.8281C9.50563 12.7635 9.5643 12.7049 9.5643 12.6981C9.5643 12.6672 9.53123 12.6944 9.42172 12.8156ZM9.04181 13.2357L8.90385 13.3858L9.05408 13.248C9.19363 13.1196 9.22243 13.0857 9.19185 13.0857C9.18528 13.0857 9.11772 13.1532 9.04181 13.2357ZM64.5538 13.926C64.5538 13.9591 64.5695 14.0222 64.5883 14.0661C64.61 14.1166 64.6226 14.1239 64.6226 14.0862C64.6226 14.0531 64.6071 13.99 64.5883 13.9461C64.5666 13.8956 64.5538 13.8882 64.5538 13.926ZM64.7184 14.7465C64.719 14.8345 64.7271 14.8658 64.7366 14.816C64.7462 14.7662 64.7458 14.6942 64.7359 14.656C64.7259 14.6176 64.7181 14.6585 64.7184 14.7465ZM64.7631 15.4266C64.7631 15.6469 64.7698 15.7317 64.778 15.6154C64.786 15.4992 64.786 15.3191 64.7776 15.2153C64.7695 15.1114 64.7629 15.2066 64.7631 15.4266ZM64.7184 16.107C64.719 16.195 64.7271 16.2263 64.7366 16.1765C64.7462 16.1267 64.7458 16.0547 64.7359 16.0165C64.7259 15.9783 64.7181 16.019 64.7184 16.107ZM6.41212 19.3285C6.41212 19.4055 6.4203 19.437 6.43043 19.3984C6.44056 19.36 6.44056 19.2969 6.43043 19.2585C6.4203 19.2199 6.41212 19.2514 6.41212 19.3285ZM63.2255 19.3584L63.0877 19.5086L63.2377 19.3706C63.3202 19.2947 63.3878 19.2272 63.3878 19.2206C63.3878 19.19 63.354 19.2188 63.2255 19.3584ZM37.3895 19.6286C37.3897 19.7826 37.397 19.8407 37.4055 19.7577C37.4143 19.6746 37.4141 19.5486 37.4052 19.4777C37.3965 19.4066 37.3894 19.4745 37.3895 19.6286ZM6.37425 19.6686C6.37461 19.7786 6.38225 19.8188 6.3915 19.758C6.40074 19.6972 6.40056 19.6073 6.39096 19.558C6.38154 19.5088 6.3739 19.5586 6.37425 19.6686ZM62.8276 19.7486C62.7303 19.8476 62.6598 19.9287 62.6708 19.9287C62.6818 19.9287 62.7703 19.8476 62.8676 19.7486C62.9647 19.6496 63.0352 19.5685 63.0242 19.5685C63.0132 19.5685 62.9247 19.6496 62.8276 19.7486ZM6.34119 21.6695C6.34119 22.6378 6.34634 23.0282 6.35274 22.537C6.35914 22.0458 6.35914 21.2535 6.35274 20.7763C6.34634 20.2992 6.34119 20.701 6.34119 21.6695ZM29.6329 21.2492L21.8695 21.2697L29.6207 21.2794C34.7554 21.286 37.3799 21.2757 37.3965 21.2492C37.41 21.2272 37.4155 21.2137 37.4087 21.2192C37.402 21.2245 33.9028 21.238 29.6329 21.2492ZM37.8107 21.2594C37.8272 21.2759 42.6208 21.285 48.4633 21.2794L59.0859 21.2693L48.4333 21.2492C42.5743 21.2382 37.7942 21.2428 37.8107 21.2594ZM59.5161 21.2368C59.5545 21.2469 59.6176 21.2469 59.6562 21.2368C59.6946 21.2268 59.6631 21.2185 59.5862 21.2185C59.509 21.2185 59.4775 21.2268 59.5161 21.2368ZM59.135 21.9584C59.2061 21.9673 59.3321 21.9674 59.4151 21.9587C59.4982 21.9502 59.44 21.9429 59.2859 21.9427C59.1319 21.9426 59.064 21.9497 59.135 21.9584ZM63.026 23.6202C63.1917 23.797 63.2278 23.8288 63.2278 23.7987C63.2278 23.7923 63.1421 23.7068 63.0375 23.6087L62.8475 23.4302L63.026 23.6202ZM37.3895 23.7504C37.3897 23.9045 37.397 23.9626 37.4055 23.8794C37.4143 23.7964 37.4141 23.6704 37.4052 23.5994C37.3965 23.5283 37.3894 23.5962 37.3895 23.7504ZM6.37372 23.6903C6.37372 23.7893 6.38154 23.8298 6.39114 23.7804C6.40056 23.7308 6.40056 23.6498 6.39114 23.6003C6.38154 23.5507 6.37372 23.5913 6.37372 23.6903ZM37.1008 25.5779C37.0983 25.6146 37.0859 25.6777 37.0733 25.718C37.0514 25.7874 37.0527 25.7875 37.0959 25.72C37.1211 25.6807 37.1335 25.6178 37.1236 25.5799C37.1074 25.518 37.1051 25.5177 37.1008 25.5779ZM64.5538 26.2515C64.5538 26.2844 64.5695 26.3475 64.5883 26.3914C64.61 26.4419 64.6226 26.4494 64.6226 26.4115C64.6226 26.3785 64.6071 26.3155 64.5883 26.2714C64.5666 26.221 64.5538 26.2137 64.5538 26.2515ZM7.06492 26.9017C7.07985 26.9513 7.10865 27.0094 7.12874 27.0309C7.14883 27.0524 7.1451 27.0119 7.12039 26.9408C7.06972 26.7955 7.02279 26.7625 7.06492 26.9017ZM64.7175 27.0919C64.7175 27.1689 64.7259 27.2003 64.7359 27.1619C64.746 27.1234 64.746 27.0602 64.7359 27.0218C64.7259 26.9833 64.7175 27.0147 64.7175 27.0919ZM64.7631 27.7522C64.7631 27.9722 64.7698 28.0572 64.778 27.9408C64.786 27.8245 64.786 27.6444 64.7776 27.5406C64.7695 27.437 64.7629 27.5321 64.7631 27.7522ZM64.7184 28.4323C64.719 28.5205 64.7271 28.5518 64.7366 28.502C64.7462 28.4522 64.7458 28.3802 64.7359 28.3418C64.7259 28.3036 64.7181 28.3443 64.7184 28.4323ZM34.6333 30.2233L34.4751 30.3932L34.6452 30.235C34.7387 30.1481 34.8153 30.0716 34.8153 30.065C34.8153 30.0348 34.7805 30.065 34.6333 30.2233ZM9.46421 30.5733C9.68341 30.7934 9.87185 30.9735 9.88288 30.9735C9.8939 30.9735 9.72341 30.7934 9.50421 30.5733C9.28483 30.3532 9.09656 30.1731 9.08554 30.1731C9.07452 30.1731 9.24483 30.3532 9.46421 30.5733ZM33.935 30.9136C33.8377 31.0126 33.7671 31.0937 33.7782 31.0937C33.7892 31.0937 33.8777 31.0126 33.975 30.9136C34.072 30.8144 34.1426 30.7335 34.1316 30.7335C34.1206 30.7335 34.032 30.8144 33.935 30.9136ZM9.96448 31.0261C9.96448 31.0329 10.023 31.0915 10.0944 31.1561L10.2246 31.2736L10.1071 31.1436C9.99736 31.0224 9.96448 30.9952 9.96448 31.0261ZM63.3252 31.5838L63.2077 31.7139L63.3378 31.5962C63.4591 31.4867 63.4863 31.4537 63.4553 31.4537C63.4484 31.4537 63.3899 31.5123 63.3252 31.5838ZM62.765 32.144L62.6475 32.2741L62.7775 32.1566C62.8987 32.0471 62.9259 32.014 62.895 32.014C62.8882 32.014 62.8295 32.0725 62.765 32.144ZM28.7126 33.4946C28.6036 33.5223 28.6018 33.5253 28.6927 33.5271C28.7476 33.5282 28.8287 33.5136 28.8727 33.4946C28.9714 33.4522 28.8791 33.4522 28.7126 33.4946ZM37.8107 33.5847C37.8272 33.6012 42.6029 33.6103 48.4233 33.6048L59.0059 33.5946L48.3933 33.5747C42.5563 33.5637 37.7942 33.5682 37.8107 33.5847ZM15.917 33.643C15.9664 33.6524 16.0475 33.6524 16.0971 33.643C16.1465 33.6334 16.1062 33.6256 16.007 33.6256C15.9079 33.6256 15.8674 33.6334 15.917 33.643ZM27.7222 33.643C27.7718 33.6524 27.8527 33.6524 27.9023 33.643C27.9517 33.6334 27.9113 33.6256 27.8121 33.6256C27.7131 33.6256 27.6726 33.6334 27.7222 33.643ZM19.0983 33.6848C20.6336 33.6905 23.1456 33.6905 24.6807 33.6848C26.216 33.6789 24.96 33.6741 21.8896 33.6741C18.8192 33.6741 17.5632 33.6789 19.0983 33.6848Z" fill="#65A3BD"/>
</g>
<defs>
<clipPath id="clip0_38_552">
<rect width="71.1111" height="40.0174" fill="white"/>
</clipPath>
</defs>
</svg>
