<svg width="143" height="57" viewBox="0 0 143 57" fill="none" xmlns="http://www.w3.org/2000/svg">
<path d="M76.4615 13.407C76.3103 13.4767 76.134 13.4767 75.9828 13.407L75.227 12.9884C75.1514 12.9419 75.101 12.8954 75.0758 12.8256C75.0254 12.7558 75.0002 12.686 75.0002 12.593V11.7791C75.0002 11.6395 75.0758 11.5 75.227 11.407L84.3219 6.52326L71.5487 0.104651C71.2212 -0.0348837 70.8433 -0.0348837 70.5157 0.104651L57.7677 6.5L72.0274 14.1744C72.1785 14.2442 72.2541 14.3837 72.2541 14.5465V25.7326C72.2541 25.8954 72.1533 26.0116 72.0022 26.1047L71.2464 26.5C71.1708 26.5233 71.0952 26.5465 71.0196 26.5465C70.944 26.5465 70.8433 26.5233 70.7677 26.5L70.0119 26.1047C69.8607 26.0349 69.7851 25.8954 69.7599 25.7326V15.7558C69.7599 15.686 69.7095 15.593 69.634 15.5465L57.0623 8.80233V22.0116C57.0874 22.3372 57.2638 22.6395 57.5661 22.8256L70.5157 29.8953C70.8433 30.0349 71.196 30.0349 71.5235 29.8953L84.4731 22.8488C84.7754 22.6628 84.9518 22.3605 84.977 22.0349V8.82558L76.4615 13.407Z" fill="url(#paint0_linear_38_563)"/>
<path d="M91.3711 57H87.4039V38.8916C89.4343 38.1707 91.5898 37.767 93.7764 37.767C98.5558 37.767 101.836 40.2757 101.836 44.5433C101.836 49.2434 98.7745 51.8674 93.714 51.8674H93.5265V48.6955C95.9943 48.6955 97.8374 47.4268 97.8374 44.6874C97.8374 42.3518 96.1818 41.0542 93.7452 41.0542C92.933 41.0254 92.1521 41.1407 91.3711 41.4002V57ZM139.29 48.6667C137.603 48.6667 136.729 47.917 136.729 46.3887V41.1119H141.852V38.1419H136.729V33.1246H132.793V46.6482C132.793 50.6275 135.198 51.925 139.009 51.925C140.009 51.925 141.04 51.8385 142.039 51.6943V48.3495C141.133 48.5513 140.227 48.6955 139.29 48.6667ZM11.8392 38.7762C10.5897 38.0842 9.15273 37.7382 7.68455 37.767C3.24875 37.767 0 40.564 0 44.8316C0 49.0992 2.99885 51.8385 7.71578 51.8385C9.21521 51.8674 10.6834 51.5213 11.9641 50.8293V47.4556C10.9021 48.2341 9.6213 48.6667 8.27807 48.6667C6.06017 48.8108 4.12341 47.2826 3.96722 45.2353C3.96722 45.0911 3.96722 44.9469 3.96722 44.8028C3.84227 42.842 5.43541 41.1407 7.59083 40.9965C7.77826 40.9965 7.96569 40.9965 8.12188 40.9965C9.49635 40.9677 10.8083 41.4002 11.8704 42.2365V38.7762H11.8392ZM13.9634 51.5502H17.8681V41.4579C18.7428 41.1695 19.6799 41.0542 20.6171 41.0542C22.3039 41.0542 23.2098 41.8328 23.2098 43.361V51.5502H27.1458V43.1303C27.1458 39.1511 24.6155 37.8247 21.4605 37.8247C20.2422 37.8247 19.0239 38.0265 17.8681 38.4014V32H13.9634V51.5502ZM38.5164 44.8604C38.5164 48.7532 41.9214 51.8962 46.1385 51.8962C50.3556 51.8962 53.7606 48.7532 53.7606 44.8604C53.7606 40.9677 50.3556 37.8247 46.1385 37.8247C41.9214 37.7958 38.5164 40.9677 38.5164 44.8604ZM49.7934 44.8604C49.7934 47.2826 48.2627 48.7532 46.1385 48.7532C44.0143 48.7532 42.4837 47.2538 42.4837 44.8604C42.4837 42.4671 44.0143 40.9677 46.1385 40.9677C48.2627 40.9677 49.7934 42.4095 49.7934 44.8604ZM55.6036 51.5502H59.5396V41.4579C60.4143 41.1984 61.3514 41.0542 62.2885 41.0542C63.9754 41.0542 64.8813 41.8328 64.8813 43.361V51.5502H68.8485V43.1303C68.8485 39.1223 66.4432 37.8247 62.6009 37.8247C60.2268 37.8535 57.884 38.2572 55.6348 39.0069L55.6036 51.5502ZM70.4417 44.8604C70.4417 48.7532 73.8466 51.8962 78.0637 51.8962C82.2809 51.8962 85.6858 48.7532 85.6858 44.8604C85.6858 40.9677 82.2809 37.8247 78.0637 37.8247C73.8778 37.7958 70.4417 40.9677 70.4417 44.8604ZM81.7498 44.8604C81.7498 47.2826 80.2191 48.7532 78.095 48.7532C75.9708 48.7532 74.4401 47.2538 74.4401 44.8604C74.4401 42.4671 75.9708 40.9677 78.095 40.9677C80.2191 40.9677 81.7186 42.4095 81.7498 44.8604ZM35.705 37.8247C31.9252 37.8247 29.4574 39.1223 29.4574 43.1303V51.579H33.4246V43.3899C33.4246 41.8904 34.2993 41.083 36.0174 41.083C36.9545 41.083 37.8604 41.1984 38.7663 41.4291V38.0265C37.7355 37.8824 36.7046 37.7958 35.705 37.8247ZM120.266 50.6275C121.703 51.3772 123.359 51.752 125.014 51.7232C128.419 51.7232 130.793 50.3968 130.793 47.4556C130.793 45.0335 129.513 43.7359 125.764 43.0727C124.39 42.7555 123.859 42.4095 123.859 41.7174C123.859 41.0254 124.421 40.564 125.733 40.564C127.232 40.5928 128.669 41.0542 129.888 41.8616V38.6321C128.576 37.94 127.107 37.594 125.608 37.6228C122.484 37.6228 120.048 38.9781 120.048 41.9481C120.048 44.3991 121.422 45.6102 124.733 46.158C126.358 46.4752 126.951 46.7924 126.951 47.5998C126.951 48.4072 126.139 48.782 124.921 48.782C123.234 48.7243 121.641 48.2053 120.266 47.2826V50.6275ZM103.554 44.8316C103.554 48.7243 106.959 51.8674 111.176 51.8674C115.393 51.8674 118.798 48.7243 118.798 44.8316C118.798 40.9389 115.393 37.7959 111.176 37.7959C106.959 37.7959 103.554 40.9389 103.554 44.8316ZM114.831 44.8316C114.831 47.2538 113.3 48.7243 111.176 48.7243C109.052 48.7243 107.521 47.2249 107.521 44.8316C107.521 42.4383 109.052 40.9389 111.176 40.9389C113.3 40.9389 114.831 42.4095 114.831 44.8316Z" fill="#3C3C3B"/>
<defs>
<linearGradient id="paint0_linear_38_563" x1="57.2045" y1="25.474" x2="70.3835" y2="13.4909" gradientUnits="userSpaceOnUse">
<stop stop-color="#0067AA"/>
<stop offset="0.35" stop-color="#0082C1"/>
<stop offset="0.75" stop-color="#009AD5"/>
<stop offset="1" stop-color="#00A3DD"/>
</linearGradient>
</defs>
</svg>
