<svg width="93" height="32" viewBox="0 0 93 32" fill="none" xmlns="http://www.w3.org/2000/svg">
<path d="M14.1904 14.9549V21.4171H19.5633C18.7831 22.6536 17.0167 23.3013 15.8096 23.3013C11.7763 23.3013 9.74485 20.9902 9.74485 16.3533C9.74485 11.2159 12.4092 8.59568 17.7085 8.59568C19.8135 8.59568 22.5662 9.12562 25.5103 10.053V2.32483C24.6565 1.95682 23.3611 1.67713 21.7125 1.39745C20.2257 1.1472 18.7242 1 17.2228 1C11.9676 1 7.80177 2.41315 4.69578 5.23945C1.58979 8.06575 0 11.8636 0 16.6771C0 21.0785 1.20707 24.5525 3.63592 27.1138C6.06477 29.7046 9.33268 31 13.4544 31C17.6055 31 21.4033 28.8508 22.6251 26.1276L22.5957 30.5142H28.5868V14.9549H14.1904ZM31.5456 30.4995V1.47105H40.8489V22.9333H50.9912V30.4995H31.5456ZM53.9499 29.7782V21.8587C55.3189 22.3003 56.9382 22.6683 58.7635 22.9921C60.5888 23.316 62.1639 23.4779 63.4887 23.4779C65.7556 23.4779 66.9185 22.9185 66.9185 21.9028C66.9185 21.2552 66.5505 20.9313 64.9019 20.5633L61.6634 19.842C56.1286 18.5908 53.5378 15.8086 53.5378 11.0687C53.5378 7.96271 54.6271 5.4897 56.7762 3.66438C58.9254 1.88322 61.9136 1 65.6673 1C68.2581 1 72.2179 1.52993 74.6467 2.13346V9.6997C73.3955 9.37586 71.894 9.05201 70.0687 8.77233C68.2434 8.49264 66.8302 8.37488 65.7851 8.37488C63.7978 8.37488 62.6791 8.93425 62.6791 9.94995C62.6791 10.5535 63.209 10.9657 64.2983 11.2453L68.052 12.1286C73.5574 13.4239 76.104 16.2502 76.104 21.0638C76.104 24.1403 74.9706 26.5692 72.7478 28.3356C70.525 30.1021 67.4485 31 63.5329 31C59.8086 30.9853 56.055 30.4553 53.9499 29.7782Z" fill="#061AB1"/>
<path d="M84.604 31C88.7461 31 92.104 27.6421 92.104 23.5C92.104 19.3579 88.7461 16 84.604 16C80.4619 16 77.104 19.3579 77.104 23.5C77.104 27.6421 80.4619 31 84.604 31Z" fill="#FFD100"/>
</svg>
