<svg width="24" height="24" viewBox="0 0 24 24" fill="none" xmlns="http://www.w3.org/2000/svg">
<g clip-path="url(#clip0_38_619)">
<path d="M17.6 5.59999H19.2M7.20005 0.799988H16.8C18.4974 0.799988 20.1253 1.47427 21.3255 2.6745C22.5258 3.87474 23.2 5.5026 23.2 7.19999V16.8C23.2 18.4974 22.5258 20.1252 21.3255 21.3255C20.1253 22.5257 18.4974 23.2 16.8 23.2H7.20005C5.50266 23.2 3.8748 22.5257 2.67457 21.3255C1.47433 20.1252 0.800049 18.4974 0.800049 16.8V7.19999C0.800049 5.5026 1.47433 3.87474 2.67457 2.6745C3.8748 1.47427 5.50266 0.799988 7.20005 0.799988ZM12 16.8C10.727 16.8 9.50611 16.2943 8.60594 15.3941C7.70576 14.4939 7.20005 13.273 7.20005 12C7.20005 10.7269 7.70576 9.50605 8.60594 8.60588C9.50611 7.7057 10.727 7.19999 12 7.19999C13.2731 7.19999 14.494 7.7057 15.3942 8.60588C16.2943 9.50605 16.8 10.7269 16.8 12C16.8 13.273 16.2943 14.4939 15.3942 15.3941C14.494 16.2943 13.2731 16.8 12 16.8Z" stroke="black"/>
</g>
<defs>
<clipPath id="clip0_38_619">
<rect width="24" height="24" fill="white"/>
</clipPath>
</defs>
</svg>
