<svg width="18" height="18" viewBox="0 0 18 18" fill="none" xmlns="http://www.w3.org/2000/svg">
<g clip-path="url(#clip0_16_223)">
<path d="M8.75 0C8.55109 0 8.36032 0.0790175 8.21967 0.21967C8.07902 0.360322 8 0.551088 8 0.75C8 0.948912 8.07902 1.13968 8.21967 1.28033C8.36032 1.42098 8.55109 1.5 8.75 1.5C9.70208 1.5 10.6448 1.68753 11.5245 2.05187C12.4041 2.41622 13.2033 2.95025 13.8765 3.62348C14.5497 4.2967 15.0838 5.09593 15.4481 5.97554C15.8125 6.85516 16 7.79792 16 8.75C16 9.70208 15.8125 10.6448 15.4481 11.5245C15.0838 12.4041 14.5497 13.2033 13.8765 13.8765C13.2033 14.5497 12.4041 15.0838 11.5245 15.4481C10.6448 15.8125 9.70208 16 8.75 16C8.55109 16 8.36032 16.079 8.21967 16.2197C8.07902 16.3603 8 16.5511 8 16.75C8 16.9489 8.07902 17.1397 8.21967 17.2803C8.36032 17.421 8.55109 17.5 8.75 17.5C11.0706 17.5 13.2962 16.5781 14.9372 14.9372C16.5781 13.2962 17.5 11.0706 17.5 8.75C17.5 6.42936 16.5781 4.20376 14.9372 2.56282C13.2962 0.921872 11.0706 0 8.75 0Z" fill="black"/>
<path d="M7.22 6.27997C7.08752 6.13779 7.0154 5.94975 7.01882 5.75545C7.02225 5.56115 7.10097 5.37576 7.23838 5.23835C7.37579 5.10093 7.56118 5.02222 7.75548 5.01879C7.94978 5.01537 8.13783 5.08749 8.28 5.21997L11.28 8.21997C11.4205 8.36059 11.4993 8.55122 11.4993 8.74997C11.4993 8.94872 11.4205 9.13934 11.28 9.27997L8.28 12.28C8.21134 12.3537 8.12854 12.4128 8.03654 12.4538C7.94454 12.4947 7.84522 12.5168 7.74452 12.5186C7.64382 12.5203 7.54379 12.5018 7.4504 12.4641C7.35701 12.4264 7.27218 12.3702 7.20096 12.299C7.12974 12.2278 7.0736 12.143 7.03588 12.0496C6.99816 11.9562 6.97963 11.8561 6.98141 11.7554C6.98318 11.6547 7.00523 11.5554 7.04622 11.4634C7.08721 11.3714 7.14631 11.2886 7.22 11.22L8.94 9.49997H0.75C0.551088 9.49997 0.360322 9.42095 0.21967 9.2803C0.0790175 9.13965 0 8.94888 0 8.74997C0 8.55106 0.0790175 8.36029 0.21967 8.21964C0.360322 8.07899 0.551088 7.99997 0.75 7.99997H8.94L7.22 6.27997Z" fill="black"/>
</g>
<defs>
<clipPath id="clip0_16_223">
<rect width="17.5" height="17.5" fill="white"/>
</clipPath>
</defs>
</svg>
