<svg width="55" height="57" viewBox="0 0 55 57" fill="none" xmlns="http://www.w3.org/2000/svg">
<path d="M54.9887 47.3898C54.853 51.072 52.3309 54.2184 48.7909 55.119C34.6987 57.627 20.2786 57.627 6.18651 55.119C2.64651 54.207 0.135719 51.0606 0 47.3898V9.6102C0.135719 5.9394 2.65782 2.793 6.19782 1.881C20.2899 -0.627 34.7101 -0.627 48.8022 1.881C52.3422 2.7816 54.8643 5.928 55 9.6102L54.9887 47.3898Z" fill="#AC0047"/>
<path d="M30.5154 16.9632C27.4774 16.416 25.4446 18.1032 25.4446 20.7252V29.526L20.6674 26.6532V20.7252C20.6674 15.39 24.3265 11.6052 30.5154 12.426V16.9632ZM8.24437 47.88H10.3902V42.294C10.3789 41.7582 10.5709 41.2452 10.9436 40.8576C11.3388 40.4928 11.8696 40.2876 12.4117 40.3104C12.7957 40.3218 13.1684 40.356 13.5411 40.4244V38.2584C13.1006 38.19 12.6602 38.1558 12.2084 38.1444C10.1078 38.0532 8.33472 39.7062 8.24437 41.8266C8.23308 41.9748 8.24437 42.1344 8.25567 42.2826L8.24437 47.88ZM15.653 47.025C15.1109 46.398 14.8173 45.5772 14.8624 44.745V41.325C14.8173 40.4928 15.1109 39.672 15.653 39.045C16.2516 38.4522 17.076 38.133 17.9117 38.1672H21.3563V40.299H17.9682C17.6971 40.2648 17.4148 40.3446 17.2002 40.5156C17.0308 40.7322 16.9518 41.0172 16.9856 41.2908V41.9976H20.7238V44.0268H16.9631V44.7336C16.9292 45.0186 17.0082 45.2922 17.1776 45.5202C17.3922 45.6912 17.6746 45.771 17.9456 45.7368H21.3337V47.88H17.9569C17.1212 47.9142 16.2967 47.595 15.6982 47.0022L15.653 47.025ZM24.0555 47.0478C23.5021 46.4208 23.2197 45.6 23.2649 44.7678V38.2128H25.3994V44.7564C25.3655 45.0414 25.4446 45.3264 25.614 45.5544C25.8286 45.7368 26.0996 45.8166 26.3707 45.7824H29.3409L28.6068 47.88H26.3481C25.5123 47.9142 24.6992 47.6064 24.0893 47.025L24.0555 47.0478ZM41.8091 47.88V44.1864L38.5791 38.2014H40.9959L42.8707 41.952L44.7567 38.2014H47.1735L43.9549 44.1864V47.88H41.8091ZM36.5688 39.5694C36.1058 38.2014 35.4394 38.2014 35.0781 38.2014H34.4795C34.1294 38.2014 33.4631 38.2014 32.9887 39.5694C32.2998 41.6556 30.1314 47.88 30.1314 47.88H32.3902L33.0113 46.0104H36.5575L37.19 47.88H39.4487L36.5688 39.5694ZM33.6889 44.004L34.8183 40.7208L35.9477 44.004H33.6889ZM40.6797 33.1626C40.5103 32.661 40.2618 32.661 40.1376 32.661H39.923C39.7988 32.661 39.5503 32.661 39.3809 33.1626L38.3306 36.2178H39.1663L39.3922 35.5338H40.6797L40.9056 36.2178H41.7413L40.6797 33.1626ZM39.5503 34.7928L39.9569 33.5844L40.3635 34.7928H39.5503ZM11.847 36.2178V33.8694C11.8583 33.5958 11.6325 33.3678 11.3614 33.3564C11.3501 33.3564 11.3388 33.3564 11.3275 33.3564C11.0565 33.345 10.8306 33.5502 10.8193 33.8238C10.8193 33.8352 10.8193 33.858 10.8193 33.8694V36.2178H10.0288V33.8694C10.0401 33.5958 9.83678 33.3678 9.56573 33.3564C9.55444 33.3564 9.53185 33.3564 9.52055 33.3564C9.24951 33.345 9.01234 33.5616 9.00105 33.8352C9.00105 33.8466 9.00105 33.858 9.00105 33.8694H9.05752V36.2178H8.23308V33.8808C8.22179 33.174 8.77517 32.5926 9.47538 32.5812C9.49797 32.5812 9.50926 32.5812 9.53185 32.5812C9.87066 32.5812 10.2095 32.718 10.4353 32.9802C10.6612 32.718 11 32.5812 11.3388 32.5812C12.039 32.5584 12.615 33.117 12.6376 33.8238C12.6376 33.8466 12.6376 33.858 12.6376 33.8808V36.2178H11.847ZM15.7659 34.4166C15.7208 33.4362 16.4661 32.6154 17.4374 32.5698C17.46 32.5698 17.4713 32.5698 17.4939 32.5698C18.4651 32.5812 19.2331 33.3792 19.2218 34.3596C19.2218 34.3824 19.2218 34.3938 19.2218 34.4166C19.267 35.397 18.5216 36.2178 17.5503 36.2634C17.5277 36.2634 17.5164 36.2634 17.4939 36.2634C16.5226 36.252 15.7546 35.454 15.7659 34.4736C15.7659 34.4508 15.7659 34.4394 15.7659 34.4166ZM16.5565 34.4166C16.5 34.9866 16.9066 35.4996 17.4713 35.5566C17.4826 35.5566 17.4826 35.5566 17.4939 35.5566C18.0585 35.511 18.4764 35.0094 18.4312 34.4394C18.4312 34.428 18.4312 34.428 18.4312 34.4166C18.499 33.858 18.0924 33.345 17.539 33.2766C17.5277 33.2766 17.5052 33.2766 17.4939 33.2766C16.9292 33.3222 16.5113 33.8124 16.5565 34.371C16.5452 34.3824 16.5565 34.4052 16.5565 34.4166ZM24.6314 32.946C24.8686 33.1968 25.0041 33.5388 24.9928 33.8808V36.1608H24.2136V33.8694C24.2362 33.6072 24.0555 33.3792 23.807 33.3564C23.7731 33.3564 23.7392 33.3564 23.6941 33.3564C23.4343 33.3336 23.2084 33.516 23.1859 33.7782C23.1859 33.8124 23.1859 33.8466 23.1859 33.8694V36.2178H22.4066V33.9378C22.3953 33.5958 22.5308 33.2538 22.768 33.003C23.0164 32.7636 23.3553 32.6268 23.7054 32.6382C24.0555 32.6268 24.3943 32.7636 24.6427 33.003M29.7362 36.2178H28.4148V32.661H29.7362C30.1653 32.6496 30.5719 32.832 30.8655 33.1398C31.1592 33.5046 31.3173 33.972 31.2947 34.4394C31.3173 34.9068 31.1592 35.3628 30.8655 35.7276C30.5719 36.0468 30.1653 36.2178 29.7362 36.2178ZM29.7362 33.402H29.1941V35.4654H29.7362C30.4477 35.4654 30.538 34.8384 30.5493 34.428C30.5493 33.9264 30.4138 33.402 29.7362 33.402ZM34.3553 36.2178V32.661H35.1345V36.2178H34.3553ZM45.6037 36.2178C45.2875 36.2406 44.9826 36.1152 44.7567 35.8986C44.5534 35.6706 44.4518 35.3742 44.4631 35.0664V32.661H45.2423V35.055C45.2423 35.3514 45.3101 35.4198 45.5924 35.4312H46.7218V36.2178H45.6037Z" fill="white"/>
<path d="M31.5883 12.426H36.1058V16.986H31.5883V12.426ZM26.1109 4.94757C27.6243 4.94757 28.8553 6.19017 28.8553 7.71777C28.8553 9.24537 27.6243 10.488 26.1109 10.488C24.5976 10.488 23.3666 9.24537 23.3666 7.71777C23.3666 6.19017 24.5863 4.94757 26.1109 4.94757Z" fill="#CCC7BE"/>
</svg>
