<svg width="123" height="123" viewBox="0 0 123 123" fill="none" fill-opacity="0.1" stroke="#4E3C3E" xmlns="http://www.w3.org/2000/svg">
<path d="M62.1254 121.808C55.0942 120.893 43.818 116.413 29.8905 108.99C24.1871 105.951 23.46 105.464 23.3599 104.623C23.2467 103.687 23.3077 103.709 28.2361 106.33C36.9087 110.949 45.1242 114.872 46.1038 114.872C46.4608 114.872 46.9963 115.085 47.2967 115.342C47.9715 115.917 50.6708 116.988 51.855 117.153C52.3339 117.219 53.5834 117.571 54.637 117.937C55.6906 118.303 57.4147 118.799 58.4683 119.047C59.5219 119.291 60.545 119.618 60.741 119.774C60.9412 119.927 62.2778 120.162 63.7102 120.292C66.8144 120.571 69.4571 120.101 72.9314 118.651L75.3825 117.628L75.1257 114.772C74.9036 112.321 74.9646 111.703 75.548 110.44C75.9224 109.626 76.2315 108.751 76.2315 108.494C76.2315 108.019 78.7262 106.3 80.5112 105.538C83.4892 104.271 92.1792 104.332 98.1699 105.66C103.812 106.913 109.137 106.979 112.563 105.838C113.839 105.416 115.01 104.837 115.171 104.549C115.328 104.266 115.72 103.996 116.033 103.949C116.904 103.822 118.236 102.451 120.378 99.4642C122.359 96.7127 123.552 95.7679 122.237 97.997C120.561 100.836 117.601 104.441 116.094 105.477C112.999 107.606 111.105 108.076 105.654 108.054C101.814 108.041 100.081 107.867 97.4733 107.236C92.9106 106.134 85.0086 105.842 81.7999 106.652C80.5547 106.97 78.909 107.662 78.1471 108.193C76.336 109.443 75.8136 110.884 76.1009 113.831C76.6146 119.117 76.7496 118.608 74.5205 119.731C70.6457 121.69 66.5314 122.378 62.1254 121.808ZM24.6921 103.578C24.6921 103.491 25.2886 102.734 26.02 101.889C28.284 99.2726 30.2214 91.806 30.7786 83.5339C31.0878 79.0235 31.5536 76.8074 32.3852 75.9149L33.0861 75.1617L31.9716 74.2126C31.3577 73.6858 30.6437 73.1329 30.3868 72.9805C30.1082 72.8194 29.9123 72.0967 29.9079 71.239C29.8905 66.2714 26.3161 58.6829 21.5183 53.4366C19.2456 50.9463 14.8876 47.5374 11.4568 45.5564C9.1537 44.2285 8.51371 44.0239 6.04515 43.841C2.79727 43.5929 1.73496 43.0008 0.668299 40.85C-0.21986 39.0563 -0.224211 37.7632 0.663948 36.5181C1.73061 35.0161 1.83946 33.7535 1.03402 32.1948C0.507217 31.1761 0.424493 30.7102 0.711839 30.3663C1.32136 29.6305 1.70449 29.8177 2.2487 31.1108C2.95836 32.8087 2.87999 33.6838 1.84816 35.7605L0.942586 37.576L1.76109 39.2261C2.93224 41.5858 4.38203 42.4391 7.24242 42.4479C9.49765 42.4522 12.0054 43.0617 12.4495 43.7148C12.5757 43.8976 13.8906 44.899 15.3752 45.9439C16.8598 46.9844 18.5055 48.1556 19.0323 48.5474C20.4864 49.6271 25.3887 54.573 25.3887 54.9648C25.3887 55.1564 25.9504 56.1882 26.6339 57.2636C27.3218 58.3389 28.2404 59.9803 28.6714 60.912C29.1025 61.848 29.651 62.845 29.8905 63.1367C30.1299 63.4241 30.2562 63.8595 30.1691 64.1076C30.0864 64.3514 30.1386 64.8869 30.2867 65.2962C30.4391 65.7054 30.7308 67.2641 30.9397 68.7574C31.3185 71.4654 31.3272 71.4872 33.2733 73.22C35.9596 75.6189 38.2714 78.8537 38.2714 80.2295C38.2714 81.2265 37.4529 82.8852 37.1525 82.489C35.5068 80.2817 32.9424 77.2646 32.7161 77.2646C32.5463 77.2646 32.3112 78.4793 32.1936 79.9639C31.9977 82.3715 31.5754 86.3247 31.1487 89.7989C30.8396 92.2893 29.2548 97.7576 28.3101 99.5818C27.7746 100.618 27.3653 101.571 27.3958 101.693C27.4263 101.82 26.9212 102.329 26.2682 102.825C25.1319 103.696 24.6921 103.905 24.6921 103.578ZM119.908 95.2411C117.731 94.2267 114.514 91.4272 113.917 90.021C113.674 89.4463 113.286 88.7541 113.06 88.4841C112.838 88.2098 112.611 87.8093 112.563 87.5872C112.515 87.3696 112.08 85.8588 111.597 84.2305C110.238 79.6374 110.421 72.7454 111.949 70.8254C112.668 69.9242 112.79 69.8807 112.999 70.4292C113.142 70.8036 112.955 71.5699 112.528 72.3318C109.768 77.3081 111.636 86.1505 116.469 90.9788C118.027 92.5418 121.123 94.3268 122.263 94.3268C122.703 94.3268 122.895 94.5924 122.895 95.1976C122.895 96.3078 122.224 96.3208 119.908 95.2411ZM27.8486 71.4698C26.9822 70.3683 26.8559 68.2088 27.657 68.2088C28.2404 68.2088 28.641 69.0665 29.011 71.0823C29.294 72.6322 28.8717 72.7715 27.8486 71.4698ZM28.1577 69.9198C27.9444 69.5237 27.6788 69.2842 27.5743 69.3887C27.4655 69.4975 27.5743 69.8241 27.8181 70.1158C28.445 70.8733 28.6148 70.7732 28.1577 69.9198ZM113.025 68.814C110.944 64.5648 107.2 63.5068 105.841 66.7895C105.597 67.3816 105.249 67.8605 105.066 67.8605C104.296 67.8605 106.124 64.26 107.086 63.8899C109.407 63.0018 112.803 65.2483 113.83 68.3525C114.583 70.6382 114.061 70.9386 113.025 68.814ZM103.203 65.8578C103.233 64.9479 103.351 63.9683 103.46 63.681C103.834 62.7101 104.587 60.0282 104.605 59.6146C104.613 59.3882 104.979 58.7613 105.419 58.2214C105.863 57.6815 106.481 56.8108 106.799 56.284C107.112 55.7572 107.496 55.3262 107.648 55.3262C108.075 55.3262 107.992 55.5395 106.886 57.281C105.467 59.5145 104.679 62.0657 104.64 64.5517C104.6 66.759 104.335 67.5122 103.599 67.5122C103.286 67.5122 103.164 67.0072 103.203 65.8578ZM26.1724 66.7416C25.2233 66.2845 25.1101 65.0742 26.0157 65.0742C27.091 65.0742 28.5147 65.9188 28.5191 66.5544C28.5234 67.2554 27.4176 67.3424 26.1724 66.7416ZM108.558 54.02C108.937 53.4932 109.651 52.6835 110.147 52.2176C110.648 51.7518 111.053 51.1858 111.053 50.955C111.053 50.7243 111.514 50.3455 112.071 50.1104C112.633 49.8797 113.177 49.4704 113.282 49.2005C113.395 48.9044 113.965 48.7085 114.71 48.7085C115.846 48.7085 115.92 48.7695 115.58 49.4051C115.376 49.7882 114.923 50.1017 114.575 50.1017C113.774 50.1017 111.453 51.7779 109.755 53.5803C108.249 55.1781 107.539 55.4394 108.558 54.02ZM9.19289 49.0525C8.05221 48.6084 6.53712 46.7972 6.77657 46.1659C7.09439 45.3387 8.19153 45.1123 9.36268 45.6261C10.2726 46.031 10.3815 46.2443 10.3553 47.5765C10.3205 49.2614 10.1812 49.4356 9.19289 49.0525ZM9.71533 47.4024C9.71098 46.7145 8.0914 45.8046 7.77358 46.314C7.58201 46.6274 8.92296 47.9771 9.45411 47.9988C9.59779 48.0076 9.71533 47.7376 9.71533 47.4024ZM116.277 46.967C116.277 46.3923 116.434 45.9221 116.625 45.9221C116.817 45.9221 116.974 46.3923 116.974 46.967C116.974 47.5417 116.817 48.0119 116.625 48.0119C116.434 48.0119 116.277 47.5417 116.277 46.967ZM116.773 42.7352C116.839 41.4596 116.991 40.2579 117.109 40.062C117.231 39.8705 117.722 38.3423 118.21 36.6705C118.693 34.9986 119.529 32.4953 120.069 31.1064L121.049 28.5856L118.924 28.1241C117.757 27.8716 116.591 27.7062 116.338 27.7584C116.085 27.815 115.694 27.7018 115.467 27.5189C115.241 27.3317 113.726 26.8398 112.097 26.4305C110.469 26.0213 107.57 25.1984 105.654 24.6063C103.743 24.0142 101.94 23.5048 101.653 23.4743C101.366 23.4439 100.817 23.2523 100.434 23.052C99.5152 22.5644 97.0162 21.7328 96.7158 21.8156C96.5852 21.8504 94.0077 20.627 90.9906 19.0988C87.9735 17.5707 85.3047 16.3212 85.0609 16.3212C84.8214 16.3212 84.4949 16.1209 84.3425 15.8771C84.1901 15.6333 82.7447 14.497 81.1251 13.3519C75.5306 9.39135 69.0958 2.36444 69.3265 0.463607C69.431 -0.390158 69.6182 -0.2356 71.6862 2.39144C80.189 13.2083 93.3199 20.0828 116.247 25.7122C119.39 26.4828 122.037 27.1881 122.124 27.2795C122.216 27.3666 122.046 28.111 121.754 28.9339C119.19 36.074 117.601 40.8849 117.17 42.7874L116.656 45.0514L116.773 42.7352ZM23.9955 31.9597C22.5588 31.8335 19.8943 31.5505 18.0745 31.3241C16.2546 31.1021 13.9036 30.9366 12.85 30.9584C11.7964 30.9801 9.28867 30.8365 7.27725 30.6406C5.26583 30.4446 3.4242 30.2748 3.18475 30.2661C2.9453 30.2574 2.74938 29.8438 2.74938 29.3432C2.74938 28.5072 2.84516 28.4506 3.88135 28.6335C4.50393 28.7467 7.67779 28.9992 10.9344 29.1951C14.191 29.391 18.7841 29.809 21.1395 30.1225C24.6921 30.6014 25.6761 30.6231 26.8821 30.2618C28.5539 29.7611 29.8078 28.8599 30.6872 27.5277C31.5449 26.2259 31.4709 25.6947 30.1735 24.0055C27.5134 20.5356 27.4785 20.4616 27.4785 18.5546C27.4785 16.2863 28.2012 15.6246 30.7046 15.6246C33.5433 15.6246 35.5024 17.1266 35.472 19.273L35.4589 20.3266L34.9626 19.4167C34.0918 17.8145 31.0399 16.848 28.9544 17.5141C27.8486 17.8667 27.9792 18.8115 29.3811 20.5617C31.2967 22.9519 31.7452 23.9707 31.706 25.821C31.6625 27.6757 31.0312 30.4403 30.7177 30.1268C30.6132 30.0223 30.0342 30.2879 29.4377 30.7233C27.6919 31.9902 26.7732 32.1992 23.9955 31.9597ZM37.749 25.4161C37.3658 25.2507 36.9566 25.1723 36.839 25.2376C36.3819 25.4988 35.5677 24.0926 35.3544 22.6776C35.0888 20.9187 35.4023 20.8142 36.3601 22.3424C36.8477 23.1173 37.4747 23.5658 38.3977 23.7922C40.2349 24.2493 42.0069 23.5658 47.7277 20.196C50.2833 18.6896 53.4877 16.8175 54.8417 16.0382C56.2 15.2545 57.8762 13.9919 58.5684 13.2257C59.8354 11.8238 60.9064 9.06656 60.9064 7.20535C60.9064 6.66549 61.0283 6.22358 61.1763 6.22358C61.4898 6.22358 61.2765 11.5408 60.9543 11.7977C60.8324 11.8934 60.3839 12.6858 59.9573 13.5609C59.117 15.2806 58.2201 15.9598 52.6387 19.0901C50.8667 20.0828 49.4169 21.0406 49.4169 21.2191C49.4169 21.3976 49.1688 21.5456 48.8684 21.5456C48.5679 21.5456 47.6667 21.9941 46.8657 22.5426C43.2434 25.0286 39.5514 26.1911 37.749 25.4161ZM60.9064 3.96661C60.9064 3.36536 61.098 3.08803 61.5159 3.08498C61.8512 3.08237 63.4577 2.61434 65.086 2.04488C66.7143 1.47541 68.0857 1.00739 68.1336 1.00477C68.1815 1.00216 68.2207 1.38137 68.2207 1.84722C68.2207 2.42104 67.9681 2.77326 67.437 2.9387C67.006 3.07323 66.5575 3.3301 66.4443 3.50991C66.3268 3.68928 65.8566 3.88389 65.3994 3.9418C64.9379 4.00014 64.0933 4.15513 63.5186 4.28705C60.8716 4.89308 60.9064 4.89744 60.9064 3.96661Z" fill="black"/>
</svg>
