<svg width="24" height="20" viewBox="0 0 24 20" fill="none" xmlns="http://www.w3.org/2000/svg">
<g clip-path="url(#clip0_38_621)">
<path d="M24 2.38596C23.1013 2.7841 22.148 3.04543 21.1719 3.16127C22.1887 2.5519 22.9693 1.58693 23.3369 0.437181C22.3704 1.01073 21.3129 1.41483 20.2103 1.63202C19.312 0.675119 18.0324 0.0770874 16.6162 0.0770874C13.8968 0.0770874 11.6921 2.28171 11.6921 5.00084C11.6921 5.38681 11.7357 5.76256 11.8196 6.12302C7.72744 5.91762 4.09931 3.9574 1.67072 0.9784C1.24697 1.70562 1.00416 2.55152 1.00416 3.45377C1.00416 5.16209 1.8735 6.66912 3.19462 7.55215C2.4127 7.52766 1.64798 7.31647 0.964313 6.93621C0.964031 6.95684 0.964031 6.97746 0.964031 6.99818C0.964031 9.38384 2.66128 11.374 4.91372 11.8263C4.18864 12.0235 3.42809 12.0524 2.69016 11.9107C3.31669 13.8669 5.13516 15.2904 7.28972 15.3302C5.60456 16.6508 3.48141 17.438 1.17459 17.438C0.777094 17.438 0.385219 17.4146 0 17.3692C2.17903 18.7662 4.76719 19.5814 7.54781 19.5814C16.6047 19.5814 21.5573 12.0785 21.5573 5.57187C21.5573 5.35831 21.5526 5.14596 21.543 4.93484C22.507 4.23798 23.339 3.37485 24 2.38596Z" fill="#55ACEE"/>
</g>
<defs>
<clipPath id="clip0_38_621">
<rect width="24" height="19.5938" fill="white"/>
</clipPath>
</defs>
</svg>
