<svg width="92" height="30" viewBox="0 0 92 30" fill="none" xmlns="http://www.w3.org/2000/svg">
<g clip-path="url(#clip0_38_539)">
<path d="M47.5802 9.59065C47.5277 13.7698 51.2684 16.1018 54.0863 17.4884C56.9814 18.9109 57.9539 19.8233 57.9424 21.0956C57.9208 23.0425 55.633 23.9019 53.4923 23.9353C49.7573 23.9937 47.5856 22.917 45.8591 22.1026L44.5136 28.4602C46.2458 29.2662 49.4532 29.9692 52.7793 30C60.5867 30 65.6945 26.1083 65.7221 20.0744C65.7527 12.4165 55.2327 11.9927 55.3046 8.56982C55.3294 7.53193 56.3101 6.42437 58.4592 6.14277C59.5229 6.00051 62.4594 5.89164 65.7886 7.43976L67.0953 1.28865C65.3049 0.630354 63.0038 0 60.1389 0C52.7904 0 47.6219 3.94469 47.5802 9.59065ZM79.6512 0.529831C78.2255 0.529831 77.0241 1.36957 76.4879 2.65822L65.3354 29.5482H73.1371L74.6896 25.2156H84.2231L85.1237 29.5482H92L85.9995 0.529831H79.6512ZM80.7426 8.36878L82.9941 19.2655H76.8279L80.7426 8.36878ZM38.1211 0.530193L31.9714 29.5478H39.4058L45.5526 0.529469H38.1211M27.1231 0.529469L19.385 20.2809L16.2549 3.48708C15.8876 1.61235 14.4372 0.529831 12.8265 0.529831H0.177172L0 1.37248C2.59684 1.9415 5.54731 2.85927 7.33484 3.84127C8.42878 4.44114 8.74072 4.96552 9.10009 6.39099L15.0287 29.5482H22.885L34.9298 0.529831L27.1231 0.529469Z" fill="url(#paint0_linear_38_539)"/>
</g>
<defs>
<linearGradient id="paint0_linear_38_539" x1="4229.61" y1="90.18" x2="4317.29" y2="-2990.82" gradientUnits="userSpaceOnUse">
<stop stop-color="#222357"/>
<stop offset="1" stop-color="#254AA5"/>
</linearGradient>
<clipPath id="clip0_38_539">
<rect width="92" height="30" fill="white"/>
</clipPath>
</defs>
</svg>
